<svg width="130" height="95" viewBox="0 0 130 95" fill="none" xmlns="http://www.w3.org/2000/svg">
    <path
        d="M69.4848 47.8562C68.2904 48.8409 66.7387 49.386 65.1298 49.386C63.5209 49.386 61.9692 48.8409 60.7748 47.8562L5.65479 2.07812C7.81771 0.72472 10.3781 0.000317893 12.9998 0H117C119.622 0.000317893 122.182 0.72472 124.345 2.07812L69.4848 47.8562Z"
        fill="#BDBDBD" />
    <path
        d="M130 13.4188V77.1875C130 81.9117 127.946 86.4423 124.289 89.7828C120.632 93.1233 115.672 95 110.5 95H19.5C14.3283 95 9.36838 93.1233 5.71142 89.7828C2.05446 86.4423 0 81.9117 0 77.1875V13.4188L56.42 60.4438C58.7994 62.3315 61.8485 63.3654 65 63.3531C68.1908 63.3471 71.2678 62.2693 73.645 60.325L130 13.4188Z"
        fill="#BDBDBD" />
</svg>
    