<svg width="28" height="22" viewBox="0 0 28 22" fill="none" xmlns="http://www.w3.org/2000/svg">
    <path
        d="M2.8 22C2.03 22 1.37107 21.731 0.8232 21.1929C0.275333 20.6548 0.000933333 20.0072 0 19.25V2.75C0 1.99375 0.2744 1.34658 0.8232 0.8085C1.372 0.270416 2.03093 0.000916667 2.8 0H25.2C25.97 0 26.6294 0.2695 27.1782 0.8085C27.727 1.3475 28.0009 1.99467 28 2.75V19.25C28 20.0062 27.7261 20.6539 27.1782 21.1929C26.6303 21.7319 25.9709 22.0009 25.2 22H2.8ZM14 12.375L25.2 5.5V2.75L14 9.625L2.8 2.75V5.5L14 12.375Z"
        fill="black" />
</svg>
    