<svg width="26" height="28" viewBox="0 0 26 28" fill="none" xmlns="http://www.w3.org/2000/svg">
    <path
        d="M25.6015 25.1895L19.7074 18.842C21.1265 16.8076 21.8925 14.3313 21.8899 11.7869C21.8899 5.28764 16.98 0 10.945 0C4.90995 0 0 5.28764 0 11.7869C0 18.2861 4.90995 23.5738 10.945 23.5738C13.3076 23.5765 15.6071 22.7516 17.4961 21.2234L23.3902 27.5709C23.6886 27.8581 24.0777 28.0114 24.4777 27.9993C24.8778 27.9873 25.2583 27.8108 25.5413 27.506C25.8243 27.2013 25.9882 26.7914 25.9994 26.3606C26.0106 25.9298 25.8682 25.5108 25.6015 25.1895ZM3.12713 11.7869C3.12713 10.1217 3.58564 8.49395 4.44467 7.10942C5.30371 5.72489 6.52468 4.64578 7.95321 4.00855C9.38173 3.37132 10.9536 3.2046 12.4701 3.52945C13.9867 3.85431 15.3797 4.65616 16.473 5.83361C17.5663 7.01105 18.3109 8.51121 18.6126 10.1444C18.9142 11.7775 18.7594 13.4704 18.1677 15.0088C17.576 16.5472 16.5739 17.8621 15.2883 18.7872C14.0027 19.7123 12.4912 20.2061 10.945 20.2061C8.87231 20.2034 6.88526 19.3155 5.41967 17.7372C3.95408 16.1589 3.12962 14.019 3.12713 11.7869Z"
        fill="#666666" />
</svg>
    